<?xml version="1.0" encoding="UTF-8" standalone="no"?>
<svg
   xmlns:dc="http://purl.org/dc/elements/1.1/"
   xmlns:cc="http://creativecommons.org/ns#"
   xmlns:rdf="http://www.w3.org/1999/02/22-rdf-syntax-ns#"
   xmlns:svg="http://www.w3.org/2000/svg"
   xmlns="http://www.w3.org/2000/svg"
   xmlns:sodipodi="http://sodipodi.sourceforge.net/DTD/sodipodi-0.dtd"
   xmlns:inkscape="http://www.inkscape.org/namespaces/inkscape"
   inkscape:version="1.0 (4035a4f, 2020-05-01)"
   sodipodi:docname="login.svg"
   version="1.1"
   viewBox="0 0 878.64034 552.21468"
   height="552.21468"
   width="878.64034"
   data-name="Layer 1"
   id="f241e7b9-92bc-4a39-8e1f-dd6f59c49ece">
  <metadata
     id="metadata1143">
    <rdf:RDF>
      <cc:Work
         rdf:about="">
        <dc:format>image/svg+xml</dc:format>
        <dc:type
           rdf:resource="http://purl.org/dc/dcmitype/StillImage" />
      </cc:Work>
    </rdf:RDF>
  </metadata>
  <defs
     id="defs1141">
    <filter
       id="filter2067"
       inkscape:label="Drop Shadow"
       style="color-interpolation-filters:sRGB;">
      <feFlood
         id="feFlood2057"
         result="flood"
         flood-color="rgb(0,0,0)"
         flood-opacity="0.498039" />
      <feComposite
         id="feComposite2059"
         result="composite1"
         operator="in"
         in2="SourceGraphic"
         in="flood" />
      <feGaussianBlur
         id="feGaussianBlur2061"
         result="blur"
         stdDeviation="4.5"
         in="composite1" />
      <feOffset
         id="feOffset2063"
         result="offset"
         dy="7"
         dx="6" />
      <feComposite
         id="feComposite2065"
         result="composite2"
         operator="over"
         in2="offset"
         in="SourceGraphic" />
    </filter>
  </defs>
  <sodipodi:namedview
     inkscape:current-layer="f241e7b9-92bc-4a39-8e1f-dd6f59c49ece"
     inkscape:window-maximized="1"
     inkscape:window-y="27"
     inkscape:window-x="0"
     inkscape:cy="78.180929"
     inkscape:cx="439.32016"
     inkscape:zoom="1.0104766"
     showgrid="false"
     id="namedview1139"
     inkscape:window-height="704"
     inkscape:window-width="1366"
     inkscape:pageshadow="2"
     inkscape:pageopacity="0"
     guidetolerance="10"
     gridtolerance="10"
     objecttolerance="10"
     borderopacity="1"
     bordercolor="#666666"
     pagecolor="#ffffff" />
  <g
     style="filter:url(#filter2067)"
     id="g2055">
    <path
       d="M998.54278,726.10734H255.9092a24.9009,24.9009,0,0,1-24.9009-24.9009v0q403.8068-46.93008,792.43539,0v0A24.90091,24.90091,0,0,1,998.54278,726.10734Z"
       transform="translate(-160.67983 -173.89266)"
       fill="#ccc"
       id="path1001" />
    <path
       d="M1023.44369,702.67117,231.0083,701.20641l91.84049-154.53222.43941-.73238V205.37035a31.47506,31.47506,0,0,1,31.47769-31.47769H895.29181a31.47506,31.47506,0,0,1,31.47769,31.47769v342.915Z"
       transform="translate(-160.67983 -173.89266)"
       fill="#e6e6e6"
       id="path1003" />
    <path
       d="M354.04817,195.86407a10.26484,10.26484,0,0,0-10.25332,10.25332V516.6466a10.2653,10.2653,0,0,0,10.25332,10.25332H900.40381a10.26575,10.26575,0,0,0,10.25332-10.25332V206.11739a10.26529,10.26529,0,0,0-10.25332-10.25332Z"
       transform="translate(-160.67983 -173.89266)"
       fill="#fff"
       id="path1005" />
    <path
       d="M357.63886,567.91321a4.40643,4.40643,0,0,0-3.99233,2.55761l-28.29891,61.51994a4.39408,4.39408,0,0,0,3.99161,6.231H924.45037a4.39378,4.39378,0,0,0,3.92939-6.35969l-30.76-61.51994a4.372,4.372,0,0,0-3.92939-2.42887Z"
       transform="translate(-160.67983 -173.89266)"
       fill="#ccc"
       id="path1007" />
    <circle
       cx="464.34902"
       cy="10.25332"
       r="6.59142"
       fill="#fff"
       id="circle1009" />
    <path
       d="M566.53427,649.9398a4.401,4.401,0,0,0-4.24265,3.25137l-7.09851,26.36568a4.39386,4.39386,0,0,0,4.24265,5.5372H694.43332a4.39329,4.39329,0,0,0,4.15111-5.83187l-9.12615-26.36568a4.39658,4.39658,0,0,0-4.15254-2.9567Z"
       transform="translate(-160.67983 -173.89266)"
       fill="#ccc"
       id="path1011" />
    <polygon
       points="766.09 366.922 766.09 372.782 162.169 372.782 162.623 372.049 162.623 366.922 766.09 366.922"
       fill="#ccc"
       id="polygon1013" />
    <path
       d="M852.22715,554.23663a1.07171,1.07171,0,0,0-1.03315.79175l-1.7286,6.42045a1.07,1.07,0,0,0,1.03316,1.34839H883.3725a1.06983,1.06983,0,0,0,1.01085-1.42015l-2.22235-6.42044a1.07064,1.07064,0,0,0-1.01121-.72Z"
       transform="translate(-160.67983 -173.89266)"
       fill="#ccc"
       id="path1015" />
    <path
       d="M804.22715,554.23663a1.07171,1.07171,0,0,0-1.03315.79175l-1.7286,6.42045a1.07,1.07,0,0,0,1.03316,1.34839H835.3725a1.06983,1.06983,0,0,0,1.01085-1.42015l-2.22235-6.42044a1.07064,1.07064,0,0,0-1.01121-.72Z"
       transform="translate(-160.67983 -173.89266)"
       fill="#ccc"
       id="path1017" />
    <path
       d="M665.1612,595.03225h2.57647l-5.153-344.38824h-2.57648l.10279,6.8706H602.36432l.10278-6.8706h-2.57647l-5.153,344.38824h2.57648l.33411-22.3294h67.17883Zm-3.71375-248.2H601.0279l.62963-42.08234h59.16028Zm.03858,2.57648.62963,42.08233h-61.756l.62964-42.08233Zm.66821,44.65881.62964,42.08234H599.69147l.62964-42.08234Zm.66821,44.65881.62964,42.08234H599.02326l.62964-42.08234Zm.66821,44.65882.62964,42.08239H598.355l.62964-42.08239ZM660.1496,260.09109l.62964,42.08234H601.69611l.62964-42.08234ZM597.68683,570.12637l.62964-42.08234h65.84241l.62964,42.08234Z"
       transform="translate(-160.67983 -173.89266)"
       fill="#3f3d56"
       id="path1019" />
    <circle
       cx="457.7944"
       cy="153.35761"
       r="42.01233"
       fill="#2f2e41"
       id="circle1021" />
    <rect
       x="632.56176"
       y="357.23822"
       width="12.76324"
       height="22.86749"
       transform="translate(-216.13362 -54.17899) rotate(-10.26106)"
       fill="#2f2e41"
       id="rect1023" />
    <rect
       x="607.4436"
       y="361.78527"
       width="12.76324"
       height="22.86749"
       transform="translate(-217.34533 -58.58065) rotate(-10.26106)"
       fill="#2f2e41"
       id="rect1025" />
    <ellipse
       cx="613.67177"
       cy="387.29848"
       rx="10.63602"
       ry="3.98853"
       transform="translate(-265.60562 314.45381) rotate(-40.26106)"
       fill="#2f2e41"
       id="ellipse1027" />
    <ellipse
       cx="638.2667"
       cy="382.84606"
       rx="10.63605"
       ry="3.98853"
       transform="translate(-256.9018 329.29406) rotate(-40.26106)"
       fill="#2f2e41"
       id="ellipse1029" />
    <circle
       cx="454.85318"
       cy="143.08115"
       r="14.35864"
       fill="#fff"
       id="circle1031" />
    <circle
       cx="448.95181"
       cy="137.93436"
       r="4.78622"
       fill="#3f3d56"
       id="circle1033" />
    <path
       d="M651.61608,281.54535c.63177-15.55359-12.77313-28.7276-29.9408-29.42493s-31.59692,11.346-32.22873,26.8996,11.30191,19.08746,28.46955,19.78485S650.9843,297.09893,651.61608,281.54535Z"
       transform="translate(-160.67983 -173.89266)"
       fill="#6c63ff"
       id="path1035" />
    <ellipse
       cx="579.68164"
       cy="319.59634"
       rx="6.59448"
       ry="21.00616"
       transform="translate(-22.02934 639.32717) rotate(-77.0899)"
       fill="#2f2e41"
       id="ellipse1037" />
    <ellipse
       cx="662.15028"
       cy="333.31081"
       rx="6.59448"
       ry="21.00616"
       transform="translate(28.6462 730.3615) rotate(-77.0899)"
       fill="#2f2e41"
       id="ellipse1039" />
    <path
       d="M630.01293,343.80682a9.57243,9.57243,0,1,1-18.8353,3.42883l-.00335-.01849c-.94175-5.20215,3.08038-7.043,8.28256-7.98474S629.07122,338.60467,630.01293,343.80682Z"
       transform="translate(-160.67983 -173.89266)"
       fill="#fff"
       id="path1041" />
    <ellipse
       cx="469.86576"
       cy="467.52635"
       rx="21.53369"
       ry="6.76007"
       transform="translate(-295.28292 565.61186) rotate(-69.08217)"
       fill="#2f2e41"
       id="ellipse1043" />
    <circle
       cx="430.05859"
       cy="500.04835"
       r="43.06735"
       transform="translate(-293.10046 670.56224) rotate(-80.78252)"
       fill="#2f2e41"
       id="circle1045" />
    <rect
       x="249.75315"
       y="359.95537"
       width="13.08374"
       height="23.44171"
       fill="#2f2e41"
       id="rect1047" />
    <rect
       x="275.92063"
       y="359.95537"
       width="13.08374"
       height="23.44171"
       fill="#2f2e41"
       id="rect1049" />
    <ellipse
       cx="260.65629"
       cy="383.66967"
       rx="10.90314"
       ry="4.08868"
       fill="#2f2e41"
       id="ellipse1051" />
    <ellipse
       cx="286.82377"
       cy="383.12453"
       rx="10.90314"
       ry="4.08868"
       fill="#2f2e41"
       id="ellipse1053" />
    <path
       d="M388.28186,459.997c-3.47748-15.57379,7.63867-31.31046,24.82861-35.14884s33.94422,5.67508,37.42169,21.24888-7.91491,21.31765-25.10485,25.156S391.75934,475.57078,388.28186,459.997Z"
       transform="translate(-160.67983 -173.89266)"
       fill="#6c63ff"
       id="path1055" />
    <ellipse
       cx="381.55043"
       cy="480.06495"
       rx="6.76007"
       ry="21.53368"
       transform="translate(-376.387 445.19187) rotate(-64.62574)"
       fill="#2f2e41"
       id="ellipse1057" />
    <circle
       cx="82.9008"
       cy="369.76318"
       r="43.06733"
       fill="#2f2e41"
       id="circle1059" />
    <rect
       x="63.27519"
       y="403.56287"
       width="13.08374"
       height="23.44171"
       fill="#2f2e41"
       id="rect1061" />
    <rect
       x="89.44267"
       y="403.56287"
       width="13.08374"
       height="23.44171"
       fill="#2f2e41"
       id="rect1063" />
    <ellipse
       cx="74.17827"
       cy="427.27716"
       rx="10.90314"
       ry="4.08868"
       fill="#2f2e41"
       id="ellipse1065" />
    <ellipse
       cx="100.34581"
       cy="426.732"
       rx="10.90314"
       ry="4.08868"
       fill="#2f2e41"
       id="ellipse1067" />
    <circle
       cx="83.99113"
       cy="358.86008"
       r="14.71922"
       fill="#fff"
       id="circle1069" />
    <circle
       cx="83.99113"
       cy="358.86008"
       r="4.90642"
       fill="#3f3d56"
       id="circle1071" />
    <path
       d="M201.80384,503.60449c-3.47748-15.57379,7.63867-31.31043,24.82861-35.14881s33.94421,5.67511,37.42169,21.2489-7.91492,21.31769-25.10486,25.156S205.28137,519.17834,201.80384,503.60449Z"
       transform="translate(-160.67983 -173.89266)"
       fill="#e6e6e6"
       id="path1073" />
    <ellipse
       cx="268.66855"
       cy="387.38342"
       rx="21.53369"
       ry="6.76007"
       transform="translate(-349.78596 326.14528) rotate(-69.08217)"
       fill="#2f2e41"
       id="ellipse1075" />
    <circle
       cx="228.86138"
       cy="419.90542"
       r="43.06735"
       transform="translate(-382.96135 404.65755) rotate(-80.78252)"
       fill="#2f2e41"
       id="circle1077" />
    <rect
       x="48.55595"
       y="279.81244"
       width="13.08374"
       height="23.44171"
       fill="#2f2e41"
       id="rect1079" />
    <rect
       x="74.72343"
       y="279.81244"
       width="13.08374"
       height="23.44171"
       fill="#2f2e41"
       id="rect1081" />
    <ellipse
       cx="59.45909"
       cy="303.52674"
       rx="10.90314"
       ry="4.08868"
       fill="#2f2e41"
       id="ellipse1083" />
    <ellipse
       cx="85.62657"
       cy="302.9816"
       rx="10.90314"
       ry="4.08868"
       fill="#2f2e41"
       id="ellipse1085" />
    <circle
       cx="69.27189"
       cy="235.10965"
       r="14.71922"
       fill="#fff"
       id="circle1087" />
    <circle
       cx="69.27189"
       cy="235.10965"
       r="4.90642"
       fill="#3f3d56"
       id="circle1089" />
    <path
       d="M187.08466,379.854c-3.47748-15.57379,7.63867-31.31046,24.82861-35.14884s33.94422,5.67508,37.42169,21.24888-7.91491,21.31765-25.10485,25.156S190.56214,395.42785,187.08466,379.854Z"
       transform="translate(-160.67983 -173.89266)"
       fill="#6c63ff"
       id="path1091" />
    <ellipse
       cx="180.35323"
       cy="399.92202"
       rx="6.76007"
       ry="21.53368"
       transform="translate(-418.95394 217.60525) rotate(-64.62574)"
       fill="#2f2e41"
       id="ellipse1093" />
    <path
       d="M207.70685,435.44238c0,4.21515,10.85327,12.53857,22.89655,12.53857s23.33514-11.867,23.33514-16.08209-11.29193.81775-23.33514.81775S207.70685,431.22723,207.70685,435.44238Z"
       transform="translate(-160.67983 -173.89266)"
       fill="#fff"
       id="path1095" />
    <path
       d="M271.20359,255.46135a3.00328,3.00328,0,0,0-3,3v124a3.00328,3.00328,0,0,0,3,3h287a3.00328,3.00328,0,0,0,3-3v-124a3.00328,3.00328,0,0,0-3-3Z"
       transform="translate(-160.67983 -173.89266)"
       fill="#6c63ff"
       id="path1097" />
    <circle
       cx="188.01816"
       cy="146.56869"
       r="29.1211"
       fill="#fff"
       id="circle1099" />
    <path
       id="b71acdfd-6a55-428e-917a-53f192cb0203"
       data-name="Path 40"
       d="M414.42343,316.58683a3.40529,3.40529,0,0,0,0,6.80966h91.94566a3.40529,3.40529,0,1,0,.11181-6.80966q-.05591-.00095-.11181,0Z"
       transform="translate(-160.67983 -173.89266)"
       fill="#fff" />
    <path
       id="ad4fbcfa-41b0-45f9-a593-23b6dc3fe165"
       data-name="Path 40"
       d="M414.42343,296.85963a3.40529,3.40529,0,0,0,0,6.80966H460.339a3.40529,3.40529,0,1,0,.1118-6.80966q-.0559-.00095-.1118,0Z"
       transform="translate(-160.67983 -173.89266)"
       fill="#fff" />
    <path
       id="bce2a7cd-a325-424d-9b3a-f63d1dad5aba"
       data-name="Path 40"
       d="M414.42343,337.25342a3.40529,3.40529,0,0,0,0,6.80966h91.94566a3.40529,3.40529,0,1,0,.11181-6.80966q-.05591-.001-.11181,0Z"
       transform="translate(-160.67983 -173.89266)"
       fill="#fff" />
    <ellipse
       cx="853.28249"
       cy="546.50272"
       rx="6.76007"
       ry="21.53369"
       transform="translate(-299.56006 166.77183) rotate(-20.91783)"
       fill="#2f2e41"
       id="ellipse1104" />
    <circle
       cx="884.08966"
       cy="588.02473"
       r="43.06733"
       transform="translate(-243.45509 -24.68433) rotate(-9.21747)"
       fill="#2f2e41"
       id="circle1106" />
    <polygon
       points="743.035 447.932 729.952 447.932 732.512 476.005 743.058 473.14 743.035 447.932"
       fill="#2f2e41"
       id="polygon1108" />
    <polygon
       points="714.512 448.005 701.428 448.005 703.988 476.078 714.058 473.14 714.512 448.005"
       fill="#2f2e41"
       id="polygon1110" />
    <ellipse
       cx="863.99793"
       cy="647.21172"
       rx="10.90314"
       ry="4.08868"
       transform="translate(-205.5736 -109.16812) rotate(-4.18164)"
       fill="#2f2e41"
       id="ellipse1112" />
    <circle
       cx="722.31949"
       cy="403.22896"
       r="14.71922"
       fill="#fff"
       id="circle1114" />
    <circle
       cx="722.31949"
       cy="403.22896"
       r="4.90642"
       fill="#3f3d56"
       id="circle1116" />
    <ellipse
       cx="929.59781"
       cy="558.04133"
       rx="21.53368"
       ry="6.76007"
       transform="translate(-232.25121 800.3487) rotate(-53.5499)"
       fill="#2f2e41"
       id="ellipse1118" />
    <path
       d="M863.07681,610.23132c0-3.474,8.945-10.334,18.8708-10.334s19.23228,9.7805,19.23228,13.25448-9.30655-.674-19.23228-.674S863.07681,613.70534,863.07681,610.23132Z"
       transform="translate(-160.67983 -173.89266)"
       fill="#fff"
       id="path1120" />
    <path
       d="M1004.85653,552.43438,769.111,519.7533a7.0085,7.0085,0,0,1-5.97249-7.8949l26.50189-191.17178a7.00819,7.00819,0,0,1,7.8949-5.97249l235.74551,32.68109a7.00818,7.00818,0,0,1,5.97249,7.8949L1012.75143,546.4619A7.00848,7.00848,0,0,1,1004.85653,552.43438Z"
       transform="translate(-160.67983 -173.89266)"
       fill="#6c63ff"
       id="path1122" />
    <path
       d="M920.40214,492.77223,800.04767,476.08764a2.47686,2.47686,0,0,1-.44482-.098l70.59053-90.70626a4.02366,4.02366,0,0,1,6.93772.96176l29.02932,71.46232,1.39127,3.41979Z"
       transform="translate(-160.67983 -173.89266)"
       fill="#fff"
       id="path1124" />
    <polygon
       points="759.722 318.879 718.63 313.183 742.864 286.679 744.609 284.77 745.481 283.815 746.872 287.235 759.722 318.879"
       opacity="0.2"
       style="isolation:isolate"
       id="polygon1126" />
    <path
       d="M987.41464,502.06208,883.3179,487.63129l24.23379-26.504,1.74426-1.90948,31.57921-34.54012a5.36964,5.36964,0,0,1,7.96051.62248,4.79638,4.79638,0,0,1,.3131.52448Z"
       transform="translate(-160.67983 -173.89266)"
       fill="#fff"
       id="path1128" />
    <circle
       cx="761.18602"
       cy="224.18353"
       r="18"
       fill="#fff"
       id="circle1130" />
    <rect
       x="799.9414"
       y="330.81168"
       width="22"
       height="22"
       transform="matrix(0.99053, 0.13732, -0.13732, 0.99053, -106.06204, -282.00962)"
       fill="#3f3d56"
       id="rect1132" />
    <path
       d="M925.86638,547.97334c3.47748-15.57379-7.63867-31.31046-24.82861-35.14884s-33.94421,5.67508-37.42169,21.24887,7.91492,21.31766,25.10486,25.156S922.38891,563.54716,925.86638,547.97334Z"
       transform="translate(-160.67983 -173.89266)"
       fill="#f2f2f2"
       id="path1134" />
    <ellipse
       cx="892.69043"
       cy="647.14249"
       rx="10.90314"
       ry="4.08868"
       transform="translate(-205.49217 -107.07609) rotate(-4.18164)"
       fill="#2f2e41"
       id="ellipse1136" />
  </g>
</svg>
